<mxfile host="app.diagrams.net" modified="2022-05-30T10:26:38.819Z" agent="5.0 (Windows NT 10.0; Win64; x64) AppleWebKit/537.36 (KHTML, like Gecko) Chrome/96.0.4664.110 Safari/537.36" etag="QN4G1PxCYoj2rbasqda6" version="18.1.3" type="github">
  <diagram id="f66kul1b2255i0RzbVvP" name="Page-1">
    <mxGraphModel dx="1209" dy="586" grid="0" gridSize="10" guides="1" tooltips="1" connect="1" arrows="1" fold="1" page="1" pageScale="1" pageWidth="1169" pageHeight="827" background="#fbf9ed" math="0" shadow="0">
      <root>
        <mxCell id="0" />
        <mxCell id="1" parent="0" />
        <mxCell id="XmAs8Kr-ci-16DbzXdCF-1" value="" style="rounded=0;whiteSpace=wrap;html=1;gradientColor=none;fillColor=none;" parent="1" vertex="1">
          <mxGeometry x="277" y="286" width="607" height="184" as="geometry" />
        </mxCell>
        <mxCell id="XmAs8Kr-ci-16DbzXdCF-7" value="0" style="rounded=0;whiteSpace=wrap;html=1;fillColor=#c1e8bb;gradientColor=none;fontSize=14;" parent="1" vertex="1">
          <mxGeometry x="383" y="321" width="59" height="60" as="geometry" />
        </mxCell>
        <mxCell id="XmAs8Kr-ci-16DbzXdCF-9" value="1" style="rounded=0;whiteSpace=wrap;html=1;fillColor=#c1e8bb;gradientColor=none;fontSize=14;" parent="1" vertex="1">
          <mxGeometry x="463" y="321" width="59" height="60" as="geometry" />
        </mxCell>
        <mxCell id="XmAs8Kr-ci-16DbzXdCF-15" value="" style="rounded=0;whiteSpace=wrap;html=1;fillColor=#c1e8bb;gradientColor=none;" parent="1" vertex="1">
          <mxGeometry x="110" y="381" width="92" height="60" as="geometry" />
        </mxCell>
        <mxCell id="XmAs8Kr-ci-16DbzXdCF-16" value="" style="shape=curlyBracket;whiteSpace=wrap;html=1;rounded=1;flipH=1;fillColor=#c1e8bb;gradientColor=none;rotation=-180;" parent="1" vertex="1">
          <mxGeometry x="80" y="322.5" width="20" height="118.5" as="geometry" />
        </mxCell>
        <mxCell id="XmAs8Kr-ci-16DbzXdCF-17" value="物理核" style="text;strokeColor=none;fillColor=none;html=1;fontSize=16;fontStyle=1;verticalAlign=middle;align=center;" parent="1" vertex="1">
          <mxGeometry y="361.75" width="100" height="40" as="geometry" />
        </mxCell>
        <mxCell id="XmAs8Kr-ci-16DbzXdCF-21" value="逻辑核2" style="text;strokeColor=none;fillColor=none;html=1;fontSize=16;fontStyle=1;verticalAlign=middle;align=center;" parent="1" vertex="1">
          <mxGeometry x="106" y="391" width="100" height="40" as="geometry" />
        </mxCell>
        <mxCell id="XmAs8Kr-ci-16DbzXdCF-22" value="12" style="rounded=0;whiteSpace=wrap;html=1;fillColor=#c1e8bb;gradientColor=none;fontSize=14;" parent="1" vertex="1">
          <mxGeometry x="383" y="381" width="59" height="60" as="geometry" />
        </mxCell>
        <mxCell id="XmAs8Kr-ci-16DbzXdCF-23" value="13" style="rounded=0;whiteSpace=wrap;html=1;fillColor=#c1e8bb;gradientColor=none;fontSize=14;" parent="1" vertex="1">
          <mxGeometry x="463" y="381" width="59" height="60" as="geometry" />
        </mxCell>
        <mxCell id="XmAs8Kr-ci-16DbzXdCF-28" value="" style="rounded=0;whiteSpace=wrap;html=1;fillColor=#c1e8bb;gradientColor=none;" parent="1" vertex="1">
          <mxGeometry x="110" y="321" width="92" height="60" as="geometry" />
        </mxCell>
        <mxCell id="XmAs8Kr-ci-16DbzXdCF-29" value="逻辑核1" style="text;strokeColor=none;fillColor=none;html=1;fontSize=16;fontStyle=1;verticalAlign=middle;align=center;" parent="1" vertex="1">
          <mxGeometry x="106" y="331" width="100" height="40" as="geometry" />
        </mxCell>
        <mxCell id="roF_orP02ex815MNy9no-1" value="" style="rounded=0;whiteSpace=wrap;html=1;gradientColor=none;fillColor=none;" vertex="1" parent="1">
          <mxGeometry x="277" y="521" width="608" height="212" as="geometry" />
        </mxCell>
        <mxCell id="roF_orP02ex815MNy9no-14" value="0 ~ 5" style="text;strokeColor=none;fillColor=none;html=1;fontSize=16;fontStyle=1;verticalAlign=middle;align=center;" vertex="1" parent="1">
          <mxGeometry x="288" y="331" width="100" height="40" as="geometry" />
        </mxCell>
        <mxCell id="roF_orP02ex815MNy9no-15" value="18 ~ 23" style="text;strokeColor=none;fillColor=none;html=1;fontSize=16;fontStyle=1;verticalAlign=middle;align=center;" vertex="1" parent="1">
          <mxGeometry x="288" y="650" width="100" height="40" as="geometry" />
        </mxCell>
        <mxCell id="roF_orP02ex815MNy9no-16" value="12 ~ 17" style="text;strokeColor=none;fillColor=none;html=1;fontSize=16;fontStyle=1;verticalAlign=middle;align=center;" vertex="1" parent="1">
          <mxGeometry x="288" y="391" width="100" height="40" as="geometry" />
        </mxCell>
        <mxCell id="roF_orP02ex815MNy9no-18" value="6 ~ 11" style="text;strokeColor=none;fillColor=none;html=1;fontSize=16;fontStyle=1;verticalAlign=middle;align=center;" vertex="1" parent="1">
          <mxGeometry x="288" y="562" width="100" height="40" as="geometry" />
        </mxCell>
        <mxCell id="roF_orP02ex815MNy9no-19" value="&lt;font style=&quot;font-size: 18px;&quot;&gt;CPU0&lt;/font&gt;" style="text;strokeColor=none;fillColor=none;html=1;fontSize=16;fontStyle=1;verticalAlign=middle;align=center;" vertex="1" parent="1">
          <mxGeometry x="524.5" y="239" width="100" height="40" as="geometry" />
        </mxCell>
        <mxCell id="roF_orP02ex815MNy9no-20" value="&lt;font style=&quot;font-size: 18px;&quot;&gt;CPU1&lt;/font&gt;" style="text;strokeColor=none;fillColor=none;html=1;fontSize=16;fontStyle=1;verticalAlign=middle;align=center;" vertex="1" parent="1">
          <mxGeometry x="524.5" y="481" width="100" height="40" as="geometry" />
        </mxCell>
        <mxCell id="roF_orP02ex815MNy9no-22" value="2" style="rounded=0;whiteSpace=wrap;html=1;fillColor=#c1e8bb;gradientColor=none;fontSize=14;" vertex="1" parent="1">
          <mxGeometry x="545" y="321" width="59" height="60" as="geometry" />
        </mxCell>
        <mxCell id="roF_orP02ex815MNy9no-23" value="14" style="rounded=0;whiteSpace=wrap;html=1;fillColor=#c1e8bb;gradientColor=none;fontSize=14;" vertex="1" parent="1">
          <mxGeometry x="545" y="381" width="59" height="60" as="geometry" />
        </mxCell>
        <mxCell id="roF_orP02ex815MNy9no-24" value="3" style="rounded=0;whiteSpace=wrap;html=1;fillColor=#c1e8bb;gradientColor=none;fontSize=14;" vertex="1" parent="1">
          <mxGeometry x="628" y="321" width="59" height="60" as="geometry" />
        </mxCell>
        <mxCell id="roF_orP02ex815MNy9no-25" value="15" style="rounded=0;whiteSpace=wrap;html=1;fillColor=#c1e8bb;gradientColor=none;fontSize=14;" vertex="1" parent="1">
          <mxGeometry x="628" y="381" width="59" height="60" as="geometry" />
        </mxCell>
        <mxCell id="roF_orP02ex815MNy9no-26" value="4" style="rounded=0;whiteSpace=wrap;html=1;fillColor=#c1e8bb;gradientColor=none;fontSize=14;" vertex="1" parent="1">
          <mxGeometry x="711" y="321" width="59" height="60" as="geometry" />
        </mxCell>
        <mxCell id="roF_orP02ex815MNy9no-27" value="16" style="rounded=0;whiteSpace=wrap;html=1;fillColor=#c1e8bb;gradientColor=none;fontSize=14;" vertex="1" parent="1">
          <mxGeometry x="711" y="381" width="59" height="60" as="geometry" />
        </mxCell>
        <mxCell id="roF_orP02ex815MNy9no-29" value="5" style="rounded=0;whiteSpace=wrap;html=1;fillColor=#c1e8bb;gradientColor=none;fontSize=14;" vertex="1" parent="1">
          <mxGeometry x="797" y="321" width="59" height="60" as="geometry" />
        </mxCell>
        <mxCell id="roF_orP02ex815MNy9no-30" value="17" style="rounded=0;whiteSpace=wrap;html=1;fillColor=#c1e8bb;gradientColor=none;fontSize=14;" vertex="1" parent="1">
          <mxGeometry x="797" y="381" width="59" height="60" as="geometry" />
        </mxCell>
        <mxCell id="roF_orP02ex815MNy9no-31" value="17" style="rounded=0;whiteSpace=wrap;html=1;fillColor=#c1e8bb;gradientColor=none;fontSize=14;" vertex="1" parent="1">
          <mxGeometry x="797" y="621" width="59" height="60" as="geometry" />
        </mxCell>
        <mxCell id="roF_orP02ex815MNy9no-32" value="6" style="rounded=0;whiteSpace=wrap;html=1;fillColor=#c1e8bb;gradientColor=none;fontSize=14;" vertex="1" parent="1">
          <mxGeometry x="383" y="561" width="59" height="60" as="geometry" />
        </mxCell>
        <mxCell id="roF_orP02ex815MNy9no-33" value="11" style="rounded=0;whiteSpace=wrap;html=1;fillColor=#c1e8bb;gradientColor=none;fontSize=14;" vertex="1" parent="1">
          <mxGeometry x="797" y="561" width="59" height="60" as="geometry" />
        </mxCell>
        <mxCell id="roF_orP02ex815MNy9no-34" value="16" style="rounded=0;whiteSpace=wrap;html=1;fillColor=#c1e8bb;gradientColor=none;fontSize=14;" vertex="1" parent="1">
          <mxGeometry x="711" y="621" width="59" height="60" as="geometry" />
        </mxCell>
        <mxCell id="roF_orP02ex815MNy9no-35" value="15" style="rounded=0;whiteSpace=wrap;html=1;fillColor=#c1e8bb;gradientColor=none;fontSize=14;" vertex="1" parent="1">
          <mxGeometry x="628" y="621" width="59" height="60" as="geometry" />
        </mxCell>
        <mxCell id="roF_orP02ex815MNy9no-36" value="9" style="rounded=0;whiteSpace=wrap;html=1;fillColor=#c1e8bb;gradientColor=none;fontSize=14;" vertex="1" parent="1">
          <mxGeometry x="628" y="561" width="59" height="60" as="geometry" />
        </mxCell>
        <mxCell id="roF_orP02ex815MNy9no-37" value="10" style="rounded=0;whiteSpace=wrap;html=1;fillColor=#c1e8bb;gradientColor=none;fontSize=14;" vertex="1" parent="1">
          <mxGeometry x="711" y="561" width="59" height="60" as="geometry" />
        </mxCell>
        <mxCell id="roF_orP02ex815MNy9no-38" value="8" style="rounded=0;whiteSpace=wrap;html=1;fillColor=#c1e8bb;gradientColor=none;fontSize=14;" vertex="1" parent="1">
          <mxGeometry x="545" y="561" width="59" height="60" as="geometry" />
        </mxCell>
        <mxCell id="roF_orP02ex815MNy9no-39" value="14" style="rounded=0;whiteSpace=wrap;html=1;fillColor=#c1e8bb;gradientColor=none;fontSize=14;" vertex="1" parent="1">
          <mxGeometry x="545" y="621" width="59" height="60" as="geometry" />
        </mxCell>
        <mxCell id="roF_orP02ex815MNy9no-40" value="7" style="rounded=0;whiteSpace=wrap;html=1;fillColor=#c1e8bb;gradientColor=none;fontSize=14;" vertex="1" parent="1">
          <mxGeometry x="463" y="561" width="59" height="60" as="geometry" />
        </mxCell>
        <mxCell id="roF_orP02ex815MNy9no-41" value="13" style="rounded=0;whiteSpace=wrap;html=1;fillColor=#c1e8bb;gradientColor=none;fontSize=14;" vertex="1" parent="1">
          <mxGeometry x="463" y="621" width="59" height="60" as="geometry" />
        </mxCell>
        <mxCell id="roF_orP02ex815MNy9no-42" value="12" style="rounded=0;whiteSpace=wrap;html=1;fillColor=#c1e8bb;gradientColor=none;fontSize=14;" vertex="1" parent="1">
          <mxGeometry x="383" y="621" width="59" height="60" as="geometry" />
        </mxCell>
      </root>
    </mxGraphModel>
  </diagram>
</mxfile>
